<?xml version="1.0" encoding="utf-8"?>
<!-- Generator: Adobe Illustrator 15.1.0, SVG Export Plug-In . SVG Version: 6.00 Build 0)  -->
<!DOCTYPE svg PUBLIC "-//W3C//DTD SVG 1.1//EN" "http://www.w3.org/Graphics/SVG/1.1/DTD/svg11.dtd">
<svg version="1.1" id="Layer_1" xmlns="http://www.w3.org/2000/svg" xmlns:xlink="http://www.w3.org/1999/xlink" x="0px" y="0px"
	 width="60px" height="60px" viewBox="0 0 60 60" enable-background="new 0 0 60 60" xml:space="preserve">
<g>
	<g id="CIRCLE_10_">
		
			<path fill="none" stroke="#2D3E4F" stroke-width="0.85" stroke-linecap="round" stroke-linejoin="round" stroke-miterlimit="10" d="
			M36.285,36.203c0.943,6.102,6.656,10.285,12.762,9.342c6.104-0.945,10.286-6.656,9.342-12.76
			c-0.943-6.105-6.658-10.287-12.762-9.344C39.521,24.386,35.34,30.099,36.285,36.203L36.285,36.203z"/>
	</g>
	<g id="LINE_45_">
		
			<line fill="none" stroke="#2D3E4F" stroke-width="0.9" stroke-linejoin="round" stroke-miterlimit="10" x1="37.609" y1="19.459" x2="35.545" y2="15.391"/>
	</g>
	<g id="LINE_51_">
		
			<line fill="none" stroke="#FF5964" stroke-linecap="round" stroke-linejoin="round" stroke-miterlimit="10" x1="37.609" y1="19.459" x2="17.633" y2="22.551"/>
	</g>
	<g id="LINE_50_">
		
			<line fill="none" stroke="#2D3E4F" stroke-linecap="round" stroke-linejoin="round" stroke-miterlimit="10" x1="37.609" y1="19.459" x2="37.609" y2="19.459"/>
	</g>
	<g id="LINE_48_">
		
			<path fill="none" stroke="#F3EA1B" stroke-width="1.2" stroke-linecap="round" stroke-linejoin="round" stroke-miterlimit="10" d="
			M47.334,34.492"/>
		
			<path fill="none" stroke="#F3EA1B" stroke-width="1.2" stroke-linecap="round" stroke-linejoin="round" stroke-miterlimit="10" d="
			M39.008,22.209"/>
	</g>
	<g id="CIRCLE_11_">
		
			<path fill="none" stroke="#2D3E4F" stroke-width="0.85" stroke-linecap="round" stroke-linejoin="round" stroke-miterlimit="10" d="
			M1.298,40.746c0.944,6.104,6.657,10.285,12.762,9.342c6.104-0.945,10.285-6.656,9.341-12.762
			c-0.945-6.104-6.657-10.286-12.761-9.341C4.537,28.93,0.354,34.643,1.298,40.746L1.298,40.746z"/>
	</g>
	<g id="LINE_44_">
		
			<line fill="none" stroke="#2D3E4F" stroke-width="0.9" stroke-linecap="round" stroke-linejoin="round" stroke-miterlimit="10" x1="35.545" y1="15.391" x2="39.07" y2="14.845"/>
	</g>
	<g id="LINE_43_">
		
			<line fill="none" stroke="#2D3E4F" stroke-width="0.9" stroke-linecap="round" stroke-linejoin="round" stroke-miterlimit="10" x1="39.07" y1="14.845" x2="41.491" y2="14.451"/>
	</g>
	<g id="ARC_9_">
		<path fill="none" stroke="#2D3E4F" stroke-linecap="round" stroke-linejoin="round" stroke-miterlimit="10" d="M42.417,20.438
			c1.646-0.255,2.785-1.803,2.521-3.457c-0.254-1.653-1.804-2.787-3.445-2.531"/>
	</g>
	<g id="LINE_42_">
		
			<line fill="none" stroke="#2D3E4F" stroke-width="0.9" stroke-linejoin="round" stroke-miterlimit="10" x1="17.805" y1="22.413" x2="16.674" y2="20.271"/>
	</g>
	<g id="LINE_41_">
		
			<line fill="none" stroke="#2D3E4F" stroke-width="0.6" stroke-linecap="round" stroke-linejoin="round" stroke-miterlimit="10" x1="15.288" y1="18.103" x2="20.061" y2="17.365"/>
	</g>
	<g id="LINE_40_">
		
			<line fill="none" stroke="#2D3E4F" stroke-width="0.6" stroke-linecap="round" stroke-linejoin="round" stroke-miterlimit="10" x1="20.25" y1="18.581" x2="16.502" y2="20.408"/>
	</g>
	<g id="LINE_39_">
		
			<line fill="none" stroke="#2D3E4F" stroke-width="0.6" stroke-linecap="round" stroke-linejoin="round" stroke-miterlimit="10" x1="16.502" y1="20.408" x2="13.883" y2="20.812"/>
	</g>
	<g id="LINE_37_">
		
			<line fill="none" stroke="#2D3E4F" stroke-width="0.6" stroke-linecap="round" stroke-linejoin="round" stroke-miterlimit="10" x1="13.504" y1="18.379" x2="15.288" y2="18.103"/>
	</g>
	<g id="ARC_8_">
		
			<path fill="none" stroke="#2D3E4F" stroke-width="0.6" stroke-linecap="round" stroke-linejoin="round" stroke-miterlimit="10" d="
			M20.25,18.581c0.336-0.052,0.565-0.366,0.513-0.701c-0.052-0.336-0.365-0.567-0.702-0.515"/>
	</g>
	<g id="ARC_6_">
		
			<path fill="none" stroke="#2D3E4F" stroke-width="0.6" stroke-linecap="round" stroke-linejoin="round" stroke-miterlimit="10" d="
			M13.504,18.379c-0.67,0.103-1.132,0.732-1.028,1.405c0.103,0.67,0.733,1.132,1.405,1.028"/>
	</g>
	<g id="LINE_36_">
		<path fill="none" stroke="#FF5964" stroke-width="0.95" stroke-linejoin="round" stroke-miterlimit="10" d="M12.266,39.07"/>
		<path fill="none" stroke="#FF5964" stroke-width="0.95" stroke-linejoin="round" stroke-miterlimit="10" d="M23.801,39.723"/>
	</g>
	<g id="LINE_32_">
		<path fill="none" stroke="#FF5964" stroke-width="0.95" stroke-linejoin="round" stroke-miterlimit="10" d="M12.251,38.771"/>
		<path fill="none" stroke="#FF5964" stroke-width="0.95" stroke-linejoin="round" stroke-miterlimit="10" d="M17.633,22.551"/>
	</g>
	<g id="LINE_13_">
		
			<line fill="none" stroke="#FF5964" stroke-linejoin="round" stroke-miterlimit="10" x1="28.475" y1="37.445" x2="39.008" y2="22.209"/>
	</g>
	<g id="LINE_12_">
		
			<line fill="none" stroke="#FF5964" stroke-linejoin="round" stroke-miterlimit="10" x1="25.348" y1="37.186" x2="17.636" y2="22.133"/>
	</g>
	<path fill="none" stroke="#2D3E4F" stroke-width="0.5" stroke-linecap="round" stroke-miterlimit="10" d="M25.247,40.133
		c0.114,0.73,0.8,1.233,1.533,1.121"/>
	<path fill="none" stroke="#2D3E4F" stroke-width="0.5" stroke-linecap="round" stroke-miterlimit="10" d="M-4.31,50.221"/>
	<g id="CIRCLE_8_">
		
			<path fill="none" stroke="#2D3E4F" stroke-width="0.7" stroke-linecap="round" stroke-linejoin="round" stroke-miterlimit="10" d="
			M23.832,40.355c0.252,1.629,1.774,2.744,3.402,2.492c1.629-0.252,2.745-1.775,2.493-3.404c-0.252-1.627-1.776-2.744-3.404-2.492
			C24.695,37.203,23.58,38.729,23.832,40.355L23.832,40.355z"/>
	</g>
	<g id="LINE_49_">
		
			<line fill="none" stroke="#FF5964" stroke-linecap="square" stroke-linejoin="round" stroke-miterlimit="10" x1="37.609" y1="19.459" x2="39.008" y2="22.209"/>
	</g>
	
		<line fill="none" stroke="#FF5964" stroke-width="1.2" stroke-linecap="round" stroke-linejoin="round" stroke-miterlimit="10" x1="39.07" y1="22.209" x2="47.396" y2="34.492"/>
	<g id="LINE_60_">
		
			<path fill="none" stroke="#F3EA1B" stroke-width="0.1" stroke-linecap="round" stroke-linejoin="round" stroke-miterlimit="10" d="
			M12.266,39.07"/>
		
			<path fill="none" stroke="#F3EA1B" stroke-width="0.1" stroke-linecap="round" stroke-linejoin="round" stroke-miterlimit="10" d="
			M4.869,28.16"/>
	</g>
	<path fill="none" stroke="#FF5964" stroke-width="0.1" stroke-linejoin="round" stroke-miterlimit="10" d="M4.869,28.16"/>
</g>
<g id="CIRCLE_7_">
	
		<path fill="#FFFFFF" stroke="#2D3E4F" stroke-width="0.5" stroke-linecap="round" stroke-linejoin="round" stroke-miterlimit="10" d="
		M11.19,39.299c0.11,0.708,0.773,1.193,1.481,1.084s1.194-0.771,1.084-1.48c-0.11-0.709-0.773-1.189-1.481-1.084
		C11.566,37.927,11.081,38.59,11.19,39.299L11.19,39.299z"/>
</g>
<g id="LINE_72_">
	<path fill="none" stroke="#F3EA1B" stroke-width="1.2" stroke-linecap="round" stroke-linejoin="round" stroke-miterlimit="10" d="
		M12.473,39.1"/>
	<path fill="none" stroke="#F3EA1B" stroke-width="1.2" stroke-linecap="round" stroke-linejoin="round" stroke-miterlimit="10" d="
		M11.506,37.674"/>
</g>
<path fill="none" stroke="#FF5964" stroke-linejoin="round" stroke-miterlimit="10" d="M11.506,37.674"/>
<g id="LINE_70_">
	
		<path fill="none" stroke="#F3EA1B" stroke-width="0.12" stroke-linecap="round" stroke-linejoin="round" stroke-miterlimit="10" d="
		M12.473,39.1"/>
	
		<path fill="none" stroke="#F3EA1B" stroke-width="0.12" stroke-linecap="round" stroke-linejoin="round" stroke-miterlimit="10" d="
		M12.014,38.423"/>
</g>
<path fill="none" stroke="#FF5964" stroke-width="0.12" stroke-linejoin="round" stroke-miterlimit="10" d="M12.014,38.423"/>
<path fill="none" stroke="#FF5964" stroke-width="0.95" stroke-linejoin="round" stroke-miterlimit="10" d="M13.095,39.175"/>
<path fill="none" stroke="#FF5964" stroke-width="0.95" stroke-linejoin="round" stroke-miterlimit="10" d="M12.6,38.486"/>
<path fill="none" stroke="#FF5964" stroke-width="0.95" stroke-linejoin="round" stroke-miterlimit="10" d="M35.473,36.754"/>
<path fill="none" stroke="#F3EA1B" stroke-width="0.1" stroke-linecap="round" stroke-linejoin="round" stroke-miterlimit="10" d="
	M12.373,39.086"/>
<g id="CIRCLE_4_">
	
		<path fill="none" stroke="#2D3E4F" stroke-width="0.35" stroke-linecap="round" stroke-linejoin="round" stroke-miterlimit="10" d="
		M13.02,39.424"/>
</g>
<g id="LINE_73_">
	<path fill="none" stroke="#F3EA1B" stroke-width="1.2" stroke-linecap="round" stroke-linejoin="round" stroke-miterlimit="10" d="
		M12.473,39.1"/>
	<path fill="none" stroke="#F3EA1B" stroke-width="1.2" stroke-linecap="round" stroke-linejoin="round" stroke-miterlimit="10" d="
		M12.005,38.41"/>
</g>
<path fill="none" stroke="#FF5964" stroke-linejoin="round" stroke-miterlimit="10" d="M12.005,38.41"/>
<g id="LINE_71_">
	
		<path fill="none" stroke="#F3EA1B" stroke-width="0.12" stroke-linecap="round" stroke-linejoin="round" stroke-miterlimit="10" d="
		M12.473,39.1"/>
	
		<path fill="none" stroke="#F3EA1B" stroke-width="0.12" stroke-linecap="round" stroke-linejoin="round" stroke-miterlimit="10" d="
		M12.251,38.771"/>
</g>
<path fill="none" stroke="#FF5964" stroke-width="0.12" stroke-linejoin="round" stroke-miterlimit="10" d="M12.251,38.771"/>
<g id="LINE">
	
		<line fill="none" stroke="#2D3E4F" stroke-linecap="round" stroke-linejoin="round" stroke-miterlimit="10" x1="133.416" y1="13.798" x2="123.555" y2="15.325"/>
</g>
<g id="LINE_1_">
	
		<line fill="none" stroke="#2D3E4F" stroke-linecap="round" stroke-linejoin="round" stroke-miterlimit="10" x1="133.416" y1="13.798" x2="144.623" y2="12.065"/>
</g>
<g id="LINE_2_">
	
		<line fill="none" stroke="#2D3E4F" stroke-linejoin="round" stroke-miterlimit="10" x1="144.623" y1="12.065" x2="146.096" y2="14.964"/>
</g>
<g id="LINE_3_">
	
		<line fill="none" stroke="#2D3E4F" stroke-width="1.2" stroke-linecap="round" stroke-linejoin="round" stroke-miterlimit="10" x1="146.096" y1="14.964" x2="154.879" y2="27.918"/>
</g>
<g id="CIRCLE">
	<path fill="none" stroke="#2D3E4F" stroke-linecap="round" stroke-linejoin="round" stroke-miterlimit="10" d="M106.327,34.514
		c0.995,6.439,7.021,10.848,13.459,9.854c6.437-0.994,10.847-7.021,9.851-13.458c-0.996-6.436-7.021-10.846-13.457-9.85
		C109.743,22.052,105.331,28.077,106.327,34.514L106.327,34.514z"/>
</g>
<g id="CIRCLE_1_">
	<path fill="none" stroke="#2D3E4F" stroke-linecap="round" stroke-linejoin="round" stroke-miterlimit="10" d="M143.225,29.723
		c0.996,6.437,7.021,10.847,13.459,9.853c6.438-0.996,10.854-7.023,9.854-13.46c-0.996-6.438-7.021-10.848-13.459-9.853
		C146.639,17.26,142.229,23.287,143.225,29.723L143.225,29.723z"/>
</g>
<g id="LINE_4_">
	
		<line fill="none" stroke="#2D3E4F" stroke-width="0.9" stroke-linecap="round" stroke-linejoin="round" stroke-miterlimit="10" x1="144.623" y1="12.065" x2="142.445" y2="7.774"/>
</g>
<g id="LINE_5_">
	
		<line fill="none" stroke="#2D3E4F" stroke-width="0.9" stroke-linecap="round" stroke-linejoin="round" stroke-miterlimit="10" x1="142.445" y1="7.774" x2="146.164" y2="7.198"/>
</g>
<g id="LINE_6_">
	
		<line fill="none" stroke="#2D3E4F" stroke-width="0.9" stroke-linecap="round" stroke-linejoin="round" stroke-miterlimit="10" x1="146.164" y1="7.198" x2="149.752" y2="6.643"/>
</g>
<g id="ARC">
	
		<path fill="none" stroke="#2D3E4F" stroke-width="1.25" stroke-linecap="round" stroke-linejoin="round" stroke-miterlimit="10" d="
		M150.729,12.957c1.742-0.271,2.938-1.902,2.668-3.646c-0.27-1.744-1.896-2.938-3.645-2.67"/>
</g>
<g id="LINE_7_">
	
		<line fill="none" stroke="#2D3E4F" stroke-width="0.9" stroke-linecap="round" stroke-linejoin="round" stroke-miterlimit="10" x1="123.555" y1="15.325" x2="122.361" y2="13.065"/>
</g>
<g id="LINE_8_">
	
		<line fill="none" stroke="#2D3E4F" stroke-width="0.9" stroke-linecap="round" stroke-linejoin="round" stroke-miterlimit="10" x1="121.081" y1="10.634" x2="126.115" y2="9.856"/>
</g>
<g id="LINE_9_">
	
		<line fill="none" stroke="#2D3E4F" stroke-width="0.9" stroke-linecap="round" stroke-linejoin="round" stroke-miterlimit="10" x1="126.314" y1="11.138" x2="122.361" y2="13.065"/>
</g>
<g id="LINE_10_">
	
		<line fill="none" stroke="#2D3E4F" stroke-width="0.9" stroke-linecap="round" stroke-linejoin="round" stroke-miterlimit="10" x1="122.361" y1="13.065" x2="119.6" y2="13.491"/>
</g>
<g id="LINE_11_">
	
		<line fill="none" stroke="#2D3E4F" stroke-width="0.9" stroke-linecap="round" stroke-linejoin="round" stroke-miterlimit="10" x1="119.2" y1="10.925" x2="121.081" y2="10.634"/>
</g>
<g id="ARC_1_">
	<path fill="none" stroke="#2D3E4F" stroke-width="0.9" stroke-linecap="round" stroke-linejoin="round" stroke-miterlimit="10" d="
		M126.314,11.138c0.354-0.055,0.596-0.386,0.541-0.739c-0.062-0.354-0.396-0.599-0.74-0.543"/>
</g>
<g id="ARC_2_">
	<path fill="none" stroke="#2D3E4F" stroke-width="0.9" stroke-linecap="round" stroke-linejoin="round" stroke-miterlimit="10" d="
		M119.2,10.925c-0.707,0.109-1.193,0.772-1.084,1.481c0.108,0.707,0.772,1.193,1.481,1.084"/>
</g>
<g id="CIRCLE_2_">
	<path fill="none" stroke="#2D3E4F" stroke-linecap="round" stroke-linejoin="round" stroke-miterlimit="10" d="M116.282,33.867
		c0.118,0.771,0.842,1.301,1.614,1.182"/>
	<path fill="none" stroke="#2D3E4F" stroke-width="0.9" stroke-linecap="round" stroke-linejoin="round" stroke-miterlimit="10" d="
		M119.081,33.434c-0.121-0.771-0.845-1.303-1.615-1.184"/>
</g>
<g id="CIRCLE_3_">
	<path fill="none" stroke="#2D3E4F" stroke-width="0.9" stroke-linecap="round" stroke-linejoin="round" stroke-miterlimit="10" d="
		M130.092,34.102c0.266,1.719,1.871,2.896,3.588,2.629c1.719-0.266,2.896-1.873,2.629-3.59c-0.266-1.717-1.873-2.894-3.59-2.627
		C131.002,30.779,129.826,32.385,130.092,34.102L130.092,34.102z"/>
</g>
<g id="LINE_14_">
	
		<line fill="none" stroke="#2D3E4F" stroke-linecap="round" stroke-linejoin="round" stroke-miterlimit="10" x1="134.988" y1="31.033" x2="146.096" y2="14.964"/>
</g>
<g id="LINE_15_">
	
		<line fill="none" stroke="#2D3E4F" stroke-linecap="round" stroke-linejoin="round" stroke-miterlimit="10" x1="131.732" y1="30.838" x2="123.555" y2="15.325"/>
</g>
<path fill="none" stroke="#2D3E4F" stroke-width="0.5" stroke-linecap="round" stroke-miterlimit="10" d="M131.584,33.867
	c0.12,0.771,0.843,1.301,1.616,1.182"/>
<path fill="none" stroke="#2D3E4F" stroke-width="0.5" stroke-linecap="round" stroke-miterlimit="10" d="M100.413,44.506"/>
<path fill="none" stroke="#2D3E4F" stroke-width="0.5" stroke-linecap="round" stroke-miterlimit="10" d="M164.706,2.791"/>
<g id="LINE_47_">
	<path fill="none" stroke="#2D3E4F" stroke-width="0.8" stroke-linecap="round" stroke-linejoin="round" stroke-miterlimit="10" d="
		M123.555,15.325"/>
	<path fill="none" stroke="#2D3E4F" stroke-width="0.8" stroke-linecap="round" stroke-linejoin="round" stroke-miterlimit="10" d="
		M133.416,13.798"/>
</g>
<g id="LINE_46_">
	<path fill="none" stroke="#2D3E4F" stroke-width="0.8" stroke-linecap="round" stroke-linejoin="round" stroke-miterlimit="10" d="
		M142.663,13.243"/>
	<path fill="none" stroke="#2D3E4F" stroke-width="0.8" stroke-linecap="round" stroke-linejoin="round" stroke-miterlimit="10" d="
		M131.456,14.977"/>
</g>
<g id="LINE_38_">
	<path fill="none" stroke="#2D3E4F" stroke-width="0.8" stroke-linecap="round" stroke-linejoin="round" stroke-miterlimit="10" d="
		M124.354,12.317"/>
</g>
<g id="ARC_7_">
	<path fill="none" stroke="#2D3E4F" stroke-width="0.8" stroke-linecap="round" stroke-linejoin="round" stroke-miterlimit="10" d="
		M124.154,11.034"/>
	<path fill="none" stroke="#2D3E4F" stroke-width="0.8" stroke-linecap="round" stroke-linejoin="round" stroke-miterlimit="10" d="
		M124.354,12.317"/>
</g>
<g id="LINE_35_">
	
		<line fill="none" stroke="#2D3E4F" stroke-width="0.8" stroke-linejoin="round" stroke-miterlimit="10" x1="130.092" y1="34.102" x2="119.081" y2="33.434"/>
</g>
<g id="LINE_34_">
	
		<line fill="none" stroke="#2D3E4F" stroke-width="0.8" stroke-linejoin="round" stroke-miterlimit="10" x1="123.555" y1="15.325" x2="117.466" y2="32.25"/>
</g>
<g id="LINE_33_">
	<path fill="none" stroke="#2D3E4F" stroke-width="0.8" stroke-linecap="round" stroke-linejoin="round" stroke-miterlimit="10" d="
		M144.135,16.143"/>
	<path fill="none" stroke="#2D3E4F" stroke-width="0.8" stroke-linecap="round" stroke-linejoin="round" stroke-miterlimit="10" d="
		M133.027,32.213"/>
</g>
<path fill="none" stroke="#2D3E4F" stroke-width="0.8" stroke-linecap="round" stroke-miterlimit="10" d="M70.094,45.223"/>
<g id="LINE_59_">
	
		<line fill="none" stroke="#000000" stroke-width="0.09" stroke-linecap="round" stroke-linejoin="round" stroke-miterlimit="10" x1="86.754" y1="29.64" x2="86.754" y2="40.061"/>
</g>
<g id="LINE_58_">
	
		<line fill="none" stroke="#000000" stroke-width="0.09" stroke-linecap="round" stroke-linejoin="round" stroke-miterlimit="10" x1="86.754" y1="29.64" x2="84.057" y2="39.705"/>
</g>
<g id="LINE_57_">
	
		<line fill="none" stroke="#000000" stroke-width="0.09" stroke-linecap="round" stroke-linejoin="round" stroke-miterlimit="10" x1="86.754" y1="29.64" x2="81.543" y2="38.663"/>
</g>
<g id="LINE_56_">
	
		<line fill="none" stroke="#000000" stroke-width="0.09" stroke-linecap="round" stroke-linejoin="round" stroke-miterlimit="10" x1="86.754" y1="29.64" x2="79.387" y2="37.01"/>
</g>
<g id="LINE_55_">
	
		<line fill="none" stroke="#000000" stroke-width="0.09" stroke-linecap="round" stroke-linejoin="round" stroke-miterlimit="10" x1="86.754" y1="29.64" x2="77.729" y2="34.85"/>
</g>
<g id="LINE_54_">
	
		<line fill="none" stroke="#000000" stroke-width="0.09" stroke-linecap="round" stroke-linejoin="round" stroke-miterlimit="10" x1="86.754" y1="29.64" x2="76.688" y2="32.337"/>
</g>
<g id="LINE_53_">
	
		<line fill="none" stroke="#000000" stroke-width="0.09" stroke-linecap="round" stroke-linejoin="round" stroke-miterlimit="10" x1="86.754" y1="29.64" x2="76.334" y2="29.64"/>
</g>
<g id="LINE_52_">
	
		<line fill="none" stroke="#000000" stroke-width="0.09" stroke-linecap="round" stroke-linejoin="round" stroke-miterlimit="10" x1="86.754" y1="29.64" x2="76.688" y2="26.943"/>
</g>
<g id="LINE_31_">
	
		<line fill="none" stroke="#000000" stroke-width="0.09" stroke-linecap="round" stroke-linejoin="round" stroke-miterlimit="10" x1="86.754" y1="29.64" x2="77.729" y2="24.431"/>
</g>
<g id="LINE_30_">
	
		<line fill="none" stroke="#000000" stroke-width="0.09" stroke-linecap="round" stroke-linejoin="round" stroke-miterlimit="10" x1="86.754" y1="29.64" x2="79.387" y2="22.272"/>
</g>
<g id="LINE_29_">
	
		<line fill="none" stroke="#000000" stroke-width="0.09" stroke-linecap="round" stroke-linejoin="round" stroke-miterlimit="10" x1="86.754" y1="29.64" x2="81.543" y2="20.616"/>
</g>
<g id="LINE_28_">
	
		<line fill="none" stroke="#000000" stroke-width="0.09" stroke-linecap="round" stroke-linejoin="round" stroke-miterlimit="10" x1="86.754" y1="29.64" x2="84.057" y2="19.575"/>
</g>
<g id="LINE_27_">
	
		<line fill="none" stroke="#000000" stroke-width="0.09" stroke-linecap="round" stroke-linejoin="round" stroke-miterlimit="10" x1="86.754" y1="29.64" x2="86.754" y2="19.221"/>
</g>
<g id="LINE_26_">
	
		<line fill="none" stroke="#000000" stroke-width="0.09" stroke-linecap="round" stroke-linejoin="round" stroke-miterlimit="10" x1="86.754" y1="29.64" x2="89.451" y2="19.575"/>
</g>
<g id="LINE_25_">
	
		<line fill="none" stroke="#000000" stroke-width="0.09" stroke-linecap="round" stroke-linejoin="round" stroke-miterlimit="10" x1="86.754" y1="29.64" x2="91.964" y2="20.616"/>
</g>
<g id="LINE_24_">
	
		<line fill="none" stroke="#000000" stroke-width="0.09" stroke-linecap="round" stroke-linejoin="round" stroke-miterlimit="10" x1="86.754" y1="29.64" x2="94.122" y2="22.272"/>
</g>
<g id="LINE_16_">
	
		<line fill="none" stroke="#000000" stroke-width="0.09" stroke-linecap="round" stroke-linejoin="round" stroke-miterlimit="10" x1="86.754" y1="29.64" x2="95.777" y2="24.431"/>
</g>
<g id="LINE_17_">
	
		<line fill="none" stroke="#000000" stroke-width="0.09" stroke-linecap="round" stroke-linejoin="round" stroke-miterlimit="10" x1="86.754" y1="29.64" x2="96.818" y2="26.943"/>
</g>
<g id="LINE_18_">
	
		<line fill="none" stroke="#000000" stroke-width="0.09" stroke-linecap="round" stroke-linejoin="round" stroke-miterlimit="10" x1="86.754" y1="29.64" x2="97.173" y2="29.64"/>
</g>
<g id="LINE_19_">
	
		<line fill="none" stroke="#000000" stroke-width="0.09" stroke-linecap="round" stroke-linejoin="round" stroke-miterlimit="10" x1="86.754" y1="29.64" x2="96.818" y2="32.337"/>
</g>
<g id="LINE_20_">
	
		<line fill="none" stroke="#000000" stroke-width="0.09" stroke-linecap="round" stroke-linejoin="round" stroke-miterlimit="10" x1="86.754" y1="29.64" x2="95.777" y2="34.85"/>
</g>
<g id="LINE_21_">
	
		<line fill="none" stroke="#000000" stroke-width="0.09" stroke-linecap="round" stroke-linejoin="round" stroke-miterlimit="10" x1="86.754" y1="29.64" x2="94.122" y2="37.01"/>
</g>
<g id="LINE_22_">
	
		<line fill="none" stroke="#000000" stroke-width="0.09" stroke-linecap="round" stroke-linejoin="round" stroke-miterlimit="10" x1="86.754" y1="29.64" x2="91.964" y2="38.663"/>
</g>
<g id="LINE_23_">
	
		<line fill="none" stroke="#000000" stroke-width="0.09" stroke-linecap="round" stroke-linejoin="round" stroke-miterlimit="10" x1="86.754" y1="29.64" x2="89.451" y2="39.705"/>
</g>
<g id="CIRCLE_6_">
	<path fill="none" stroke="#2D3E4F" stroke-linecap="round" stroke-linejoin="round" stroke-miterlimit="10" d="M-75.118,43.848
		c0.944,6.104,6.657,10.284,12.762,9.342c6.104-0.941,10.285-6.652,9.341-12.763c-0.945-6.104-6.657-10.286-12.761-9.342
		C-71.879,32.029-76.062,37.743-75.118,43.848L-75.118,43.848z"/>
</g>
<g id="LINE_69_">
	
		<line fill="none" stroke="#2D3E4F" stroke-width="0.9" stroke-linejoin="round" stroke-miterlimit="10" x1="-58.611" y1="25.514" x2="-59.742" y2="23.372"/>
</g>
<g id="LINE_68_">
	
		<line fill="none" stroke="#2D3E4F" stroke-width="0.7" stroke-linecap="round" stroke-linejoin="round" stroke-miterlimit="10" x1="-61.128" y1="21.204" x2="-56.355" y2="20.466"/>
</g>
<g id="LINE_67_">
	
		<line fill="none" stroke="#2D3E4F" stroke-width="0.7" stroke-linecap="round" stroke-linejoin="round" stroke-miterlimit="10" x1="-56.166" y1="21.682" x2="-59.914" y2="23.509"/>
</g>
<g id="LINE_66_">
	
		<line fill="none" stroke="#2D3E4F" stroke-width="0.7" stroke-linecap="round" stroke-linejoin="round" stroke-miterlimit="10" x1="-59.914" y1="23.509" x2="-62.533" y2="23.913"/>
</g>
<g id="LINE_65_">
	
		<line fill="none" stroke="#2D3E4F" stroke-width="0.7" stroke-linecap="round" stroke-linejoin="round" stroke-miterlimit="10" x1="-62.912" y1="21.479" x2="-61.128" y2="21.204"/>
</g>
<g id="ARC_4_">
	<path fill="none" stroke="#2D3E4F" stroke-width="0.7" stroke-linecap="round" stroke-linejoin="round" stroke-miterlimit="10" d="
		M-56.166,21.682c0.336-0.052,0.565-0.366,0.513-0.701c-0.052-0.336-0.365-0.567-0.702-0.515"/>
</g>
<g id="ARC_3_">
	<path fill="none" stroke="#2D3E4F" stroke-width="0.7" stroke-linecap="round" stroke-linejoin="round" stroke-miterlimit="10" d="
		M-62.912,21.479c-0.67,0.103-1.132,0.732-1.028,1.405c0.103,0.67,0.733,1.132,1.405,1.028"/>
</g>
<g id="LINE_64_">
	
		<line fill="none" stroke="#FF5964" stroke-width="0.95" stroke-linejoin="round" stroke-miterlimit="10" x1="-52.615" y1="42.823" x2="-63.31" y2="42.182"/>
</g>
<g id="LINE_63_">
	
		<line fill="none" stroke="#FF5964" stroke-width="0.95" stroke-linejoin="round" stroke-miterlimit="10" x1="-58.783" y1="25.651" x2="-63.943" y2="41.749"/>
</g>
<g id="LINE_62_">
	<path fill="none" stroke="#FF5964" stroke-linejoin="round" stroke-miterlimit="10" d="M-47.941,40.546"/>
</g>
<g id="LINE_61_">
	
		<line fill="none" stroke="#FF5964" stroke-linejoin="round" stroke-miterlimit="10" x1="-51.068" y1="40.286" x2="-58.78" y2="25.233"/>
</g>
<path fill="none" stroke="#2D3E4F" stroke-width="0.5" stroke-linecap="round" stroke-miterlimit="10" d="M-51.169,43.232
	c0.114,0.729,0.8,1.229,1.533,1.121"/>
<path fill="none" stroke="#2D3E4F" stroke-width="0.5" stroke-linecap="round" stroke-miterlimit="10" d="M-80.726,53.32"/>
<g id="CIRCLE_5_">
	<path fill="none" stroke="#2D3E4F" stroke-width="0.8" stroke-linecap="round" stroke-linejoin="round" stroke-miterlimit="10" d="
		M-65.679,43.232c0.113,0.729,0.798,1.229,1.531,1.121"/>
	<path fill="none" stroke="#2D3E4F" stroke-width="0.8" stroke-linecap="round" stroke-linejoin="round" stroke-miterlimit="10" d="
		M-63.024,42.823c-0.115-0.729-0.8-1.236-1.532-1.123"/>
</g>
<path fill="none" stroke="#FF5964" stroke-width="0.95" stroke-linejoin="round" stroke-miterlimit="10" d="M41.641,53.926"/>
<g id="CIRCLE_15_">
	
		<path fill="none" stroke="#2D3E4F" stroke-width="0.75" stroke-linecap="round" stroke-linejoin="round" stroke-miterlimit="10" d="
		M72.729,84.041c0.943,6.102,6.656,10.285,12.766,9.342c6.104-0.945,10.283-6.656,9.342-12.76
		c-0.939-6.105-6.658-10.287-12.766-9.344C75.966,72.223,71.784,77.938,72.729,84.041L72.729,84.041z"/>
</g>
<g id="LINE_94_">
	
		<line fill="none" stroke="#2D3E4F" stroke-width="0.9" stroke-linejoin="round" stroke-miterlimit="10" x1="74.055" y1="67.297" x2="71.988" y2="63.229"/>
</g>
<g id="LINE_93_">
	
		<line fill="none" stroke="#FF5964" stroke-linecap="round" stroke-linejoin="round" stroke-miterlimit="10" x1="74.055" y1="67.297" x2="54.077" y2="70.389"/>
</g>
<g id="LINE_92_">
	
		<line fill="none" stroke="#2D3E4F" stroke-linecap="round" stroke-linejoin="round" stroke-miterlimit="10" x1="74.055" y1="67.297" x2="74.055" y2="67.297"/>
</g>
<g id="LINE_91_">
	<path fill="none" stroke="#F3EA1B" stroke-width="1.2" stroke-linecap="round" stroke-linejoin="round" stroke-miterlimit="10" d="
		M83.777,82.33"/>
	<path fill="none" stroke="#F3EA1B" stroke-width="1.2" stroke-linecap="round" stroke-linejoin="round" stroke-miterlimit="10" d="
		M75.452,70.047"/>
</g>
<g id="CIRCLE_14_">
	
		<path fill="none" stroke="#2D3E4F" stroke-width="0.75" stroke-linecap="round" stroke-linejoin="round" stroke-miterlimit="10" d="
		M37.742,88.584c0.943,6.104,6.656,10.285,12.762,9.342c6.104-0.945,10.285-6.656,9.342-12.762
		c-0.945-6.104-6.656-10.287-12.762-9.342C40.98,76.768,36.799,82.48,37.742,88.584L37.742,88.584z"/>
</g>
<g id="LINE_90_">
	
		<line fill="none" stroke="#2D3E4F" stroke-width="0.9" stroke-linecap="round" stroke-linejoin="round" stroke-miterlimit="10" x1="71.988" y1="63.229" x2="75.516" y2="62.684"/>
</g>
<g id="LINE_89_">
	
		<line fill="none" stroke="#2D3E4F" stroke-width="0.9" stroke-linecap="round" stroke-linejoin="round" stroke-miterlimit="10" x1="75.516" y1="62.684" x2="78.917" y2="62.154"/>
</g>
<g id="ARC_11_">
	
		<path fill="none" stroke="#2D3E4F" stroke-width="1.25" stroke-linecap="round" stroke-linejoin="round" stroke-miterlimit="10" d="
		M79.843,68.143c1.646-0.256,2.785-1.805,2.521-3.457c-0.254-1.65-1.803-2.787-3.443-2.531"/>
</g>
<g id="LINE_88_">
	
		<line fill="none" stroke="#2D3E4F" stroke-width="0.9" stroke-linejoin="round" stroke-miterlimit="10" x1="54.25" y1="70.25" x2="53.118" y2="68.107"/>
</g>
<g id="LINE_87_">
	
		<line fill="none" stroke="#2D3E4F" stroke-width="0.7" stroke-linecap="round" stroke-linejoin="round" stroke-miterlimit="10" x1="51.732" y1="65.939" x2="56.506" y2="65.203"/>
</g>
<g id="LINE_86_">
	
		<line fill="none" stroke="#2D3E4F" stroke-width="0.7" stroke-linecap="round" stroke-linejoin="round" stroke-miterlimit="10" x1="56.693" y1="66.418" x2="52.945" y2="68.246"/>
</g>
<g id="LINE_85_">
	
		<line fill="none" stroke="#2D3E4F" stroke-width="0.7" stroke-linecap="round" stroke-linejoin="round" stroke-miterlimit="10" x1="52.945" y1="68.246" x2="50.327" y2="68.648"/>
</g>
<g id="LINE_84_">
	
		<line fill="none" stroke="#2D3E4F" stroke-width="0.7" stroke-linecap="round" stroke-linejoin="round" stroke-miterlimit="10" x1="49.948" y1="66.217" x2="51.732" y2="65.939"/>
</g>
<g id="ARC_10_">
	<path fill="none" stroke="#2D3E4F" stroke-width="0.7" stroke-linecap="round" stroke-linejoin="round" stroke-miterlimit="10" d="
		M56.693,66.418c0.336-0.052,0.562-0.365,0.514-0.701c-0.053-0.336-0.365-0.566-0.701-0.514"/>
</g>
<g id="ARC_5_">
	<path fill="none" stroke="#2D3E4F" stroke-width="0.7" stroke-linecap="round" stroke-linejoin="round" stroke-miterlimit="10" d="
		M49.948,66.217c-0.671,0.104-1.132,0.731-1.028,1.404c0.104,0.67,0.732,1.133,1.405,1.027"/>
</g>
<g id="LINE_83_">
	
		<line fill="none" stroke="#FF5964" stroke-width="0.95" stroke-linejoin="round" stroke-miterlimit="10" x1="60.245" y1="87.561" x2="50.2" y2="87.092"/>
</g>
<g id="LINE_82_">
	
		<line fill="none" stroke="#FF5964" stroke-width="0.95" stroke-linejoin="round" stroke-miterlimit="10" x1="54.077" y1="70.389" x2="49.18" y2="85.67"/>
</g>
<g id="LINE_81_">
	
		<line fill="none" stroke="#FF5964" stroke-linejoin="round" stroke-miterlimit="10" x1="64.92" y1="85.283" x2="75.452" y2="70.047"/>
</g>
<g id="LINE_80_">
	
		<line fill="none" stroke="#FF5964" stroke-linejoin="round" stroke-miterlimit="10" x1="61.793" y1="85.023" x2="54.08" y2="69.971"/>
</g>
<path fill="none" stroke="#2D3E4F" stroke-width="0.5" stroke-linecap="round" stroke-miterlimit="10" d="M61.691,87.971
	c0.113,0.73,0.8,1.232,1.533,1.121"/>
<g id="CIRCLE_13_">
	<path fill="none" stroke="#2D3E4F" stroke-width="0.7" stroke-linecap="round" stroke-linejoin="round" stroke-miterlimit="10" d="
		M60.275,88.193c0.252,1.629,1.771,2.744,3.398,2.492c1.633-0.252,2.745-1.775,2.493-3.404c-0.252-1.627-1.772-2.744-3.399-2.492
		C61.139,85.041,60.023,86.566,60.275,88.193L60.275,88.193z"/>
</g>
<g id="LINE_79_">
	
		<line fill="none" stroke="#FF5964" stroke-linecap="square" stroke-linejoin="round" stroke-miterlimit="10" x1="74.055" y1="67.297" x2="75.452" y2="70.047"/>
</g>
<line fill="none" stroke="#FF5964" stroke-width="1.2" stroke-linecap="round" stroke-linejoin="round" stroke-miterlimit="10" x1="75.516" y1="70.047" x2="83.841" y2="82.33"/>
<g id="LINE_78_">
	<path fill="none" stroke="#F3EA1B" stroke-width="0.1" stroke-linecap="round" stroke-linejoin="round" stroke-miterlimit="10" d="
		M48.711,86.908"/>
	<path fill="none" stroke="#F3EA1B" stroke-width="0.1" stroke-linecap="round" stroke-linejoin="round" stroke-miterlimit="10" d="
		M41.312,75.998"/>
</g>
<path fill="none" stroke="#FF5964" stroke-width="0.1" stroke-linejoin="round" stroke-miterlimit="10" d="M41.312,75.998"/>
<g id="CIRCLE_12_">
	<path fill="none" stroke="#2D3E4F" stroke-width="0.5" stroke-linecap="round" stroke-linejoin="round" stroke-miterlimit="10" d="
		M47.635,87.137c0.109,0.707,0.772,1.193,1.48,1.084s1.193-0.771,1.084-1.479s-0.773-1.193-1.48-1.084
		C48.01,85.764,47.525,86.428,47.635,87.137L47.635,87.137z"/>
</g>
<g id="LINE_77_">
	<path fill="none" stroke="#F3EA1B" stroke-width="1.2" stroke-linecap="round" stroke-linejoin="round" stroke-miterlimit="10" d="
		M48.918,86.938"/>
	<path fill="none" stroke="#F3EA1B" stroke-width="1.2" stroke-linecap="round" stroke-linejoin="round" stroke-miterlimit="10" d="
		M47.95,85.512"/>
</g>
<path fill="none" stroke="#FF5964" stroke-linejoin="round" stroke-miterlimit="10" d="M47.95,85.512"/>
<g id="LINE_76_">
	
		<path fill="none" stroke="#F3EA1B" stroke-width="0.12" stroke-linecap="round" stroke-linejoin="round" stroke-miterlimit="10" d="
		M48.918,86.938"/>
	
		<path fill="none" stroke="#F3EA1B" stroke-width="0.12" stroke-linecap="round" stroke-linejoin="round" stroke-miterlimit="10" d="
		M48.459,86.26"/>
</g>
<path fill="none" stroke="#FF5964" stroke-width="0.12" stroke-linejoin="round" stroke-miterlimit="10" d="M48.459,86.26"/>
<path fill="none" stroke="#FF5964" stroke-width="0.95" stroke-linejoin="round" stroke-miterlimit="10" d="M49.539,87.012"/>
<path fill="none" stroke="#FF5964" stroke-width="0.95" stroke-linejoin="round" stroke-miterlimit="10" d="M49.044,86.324"/>
<path fill="none" stroke="#FF5964" stroke-width="0.95" stroke-linejoin="round" stroke-miterlimit="10" d="M71.917,84.592"/>
<path fill="none" stroke="#F3EA1B" stroke-width="0.1" stroke-linecap="round" stroke-linejoin="round" stroke-miterlimit="10" d="
	M48.816,86.924"/>
<g id="CIRCLE_9_">
	<path fill="none" stroke="#2D3E4F" stroke-width="0.5" stroke-linecap="round" stroke-linejoin="round" stroke-miterlimit="10" d="
		M48.296,87.033c0.054,0.344,0.374,0.578,0.718,0.525c0.344-0.057,0.578-0.373,0.524-0.721c-0.054-0.344-0.374-0.574-0.718-0.521
		C48.479,86.369,48.243,86.691,48.296,87.033L48.296,87.033z"/>
</g>
<g id="LINE_75_">
	<path fill="none" stroke="#F3EA1B" stroke-width="1.2" stroke-linecap="round" stroke-linejoin="round" stroke-miterlimit="10" d="
		M48.918,86.938"/>
	<path fill="none" stroke="#F3EA1B" stroke-width="1.2" stroke-linecap="round" stroke-linejoin="round" stroke-miterlimit="10" d="
		M48.449,86.248"/>
</g>
<path fill="none" stroke="#FF5964" stroke-linejoin="round" stroke-miterlimit="10" d="M48.449,86.248"/>
<g id="LINE_74_">
	
		<path fill="none" stroke="#F3EA1B" stroke-width="0.12" stroke-linecap="round" stroke-linejoin="round" stroke-miterlimit="10" d="
		M48.918,86.938"/>
	
		<path fill="none" stroke="#F3EA1B" stroke-width="0.12" stroke-linecap="round" stroke-linejoin="round" stroke-miterlimit="10" d="
		M48.695,86.609"/>
</g>
<path fill="none" stroke="#FF5964" stroke-width="0.12" stroke-linejoin="round" stroke-miterlimit="10" d="M48.695,86.609"/>
<g>
	<g>
		
			<line fill="none" stroke="#0A0909" stroke-width="0.5" stroke-linecap="round" stroke-linejoin="bevel" x1="49.18" y1="85.67" x2="49.18" y2="85.67"/>
		
			<line fill="none" stroke="#0A0909" stroke-width="0.5" stroke-linecap="round" stroke-linejoin="bevel" stroke-dasharray="0,2.0123" x1="51.186" y1="85.516" x2="62.221" y2="84.668"/>
		
			<line fill="none" stroke="#0A0909" stroke-width="0.5" stroke-linecap="round" stroke-linejoin="bevel" x1="63.225" y1="84.592" x2="63.225" y2="84.592"/>
	</g>
</g>
<g>
	<g>
		
			<line fill="none" stroke="#0A0909" stroke-width="0.5" stroke-linecap="round" stroke-linejoin="bevel" x1="48.764" y1="88.236" x2="48.764" y2="88.236"/>
		
			<line fill="none" stroke="#0A0909" stroke-width="0.5" stroke-linecap="round" stroke-linejoin="bevel" stroke-dasharray="0,2.0123" x1="50.751" y1="88.557" x2="61.678" y2="90.32"/>
		
			<line fill="none" stroke="#0A0909" stroke-width="0.5" stroke-linecap="round" stroke-linejoin="bevel" x1="62.67" y1="90.48" x2="62.67" y2="90.48"/>
	</g>
</g>
<line fill="none" stroke="#FF5964" stroke-width="0.95" stroke-linejoin="round" stroke-miterlimit="10" x1="17.883" y1="22.551" x2="12.373" y2="39.086"/>
<line fill="none" stroke="#FF5964" stroke-width="0.8" stroke-linejoin="round" stroke-miterlimit="10" x1="23.326" y1="39.561" x2="11.833" y2="39.175"/>
</svg>
